<?xml version="1.0" standalone="no"?>
<!DOCTYPE svg PUBLIC "-//W3C//DTD SVG 20010904//EN"
 "http://www.w3.org/TR/2001/REC-SVG-20010904/DTD/svg10.dtd">
<svg version="1.0" xmlns="http://www.w3.org/2000/svg"
 width="800.000000pt" height="800.000000pt" viewBox="0 0 800.000000 800.000000"
 preserveAspectRatio="xMidYMid meet">
<metadata>
Created by potrace 1.14, written by Peter Selinger 2001-2017
</metadata>
<g transform="translate(0.000000,800.000000) scale(0.100000,-0.100000)"
fill="#000000" stroke="none">
<path d="M2680 7075 c-135 -19 -168 -25 -264 -50 -239 -62 -458 -170 -660
-324 -68 -51 -215 -194 -266 -259 -95 -119 -193 -292 -240 -423 l-24 -66 -65
-12 c-209 -38 -476 -166 -648 -310 -367 -305 -548 -736 -500 -1191 16 -151 71
-331 140 -460 37 -68 129 -208 154 -235 19 -19 19 -21 -13 -125 -47 -150 -63
-268 -59 -440 4 -161 5 -173 42 -314 162 -625 740 -1090 1458 -1174 81 -9 355
-9 435 1 36 4 108 16 160 26 l95 19 109 -55 c224 -113 475 -173 740 -176 176
-2 272 6 408 33 267 55 524 182 683 337 65 64 115 122 115 134 0 4 37 -12 83
-36 231 -123 636 -265 756 -265 29 0 43 5 51 19 12 23 -2 40 -80 99 -74 55
-395 387 -407 421 -2 3 32 17 75 30 42 14 105 37 139 53 67 30 83 34 83 19 0
-14 95 -175 152 -257 57 -84 150 -175 208 -204 69 -35 134 -23 256 47 36 21
75 43 87 50 20 11 22 8 43 -75 12 -48 36 -121 54 -162 17 -41 32 -82 32 -90 0
-8 -15 -67 -35 -130 -19 -63 -54 -180 -77 -260 -23 -80 -45 -157 -50 -172 -18
-55 -22 -55 529 -57 406 -2 507 -5 525 -16 34 -22 118 -42 161 -38 22 2 57 12
77 22 20 10 41 15 45 11 14 -12 251 -110 266 -110 26 0 9 -33 258 524 50 112
87 207 84 216 -3 10 -24 25 -46 35 -22 10 -42 22 -45 26 -3 5 12 41 33 81 50
97 50 142 -5 303 -46 136 -145 364 -199 457 -47 81 -173 205 -243 239 -77 38
-143 59 -209 66 -81 10 -258 7 -273 -4 -7 -5 -19 -8 -25 -7 -7 1 -20 2 -28 3
-12 1 -15 15 -15 65 0 70 -2 67 79 82 82 16 298 128 387 200 l45 37 37 -44
c124 -148 271 -234 467 -273 224 -45 314 -10 187 72 -162 105 -209 254 -158
507 2 11 7 40 11 65 6 36 17 52 57 89 99 89 136 223 89 323 -25 54 -50 83 -80
93 -15 5 -21 12 -18 23 19 59 37 133 42 167 3 22 8 51 10 65 2 14 7 43 9 65
35 275 19 462 -54 640 l-29 70 19 75 c25 99 21 261 -9 338 -26 69 -65 135
-108 183 -41 46 -148 119 -173 119 -10 0 -43 15 -73 34 -31 18 -87 43 -124 55
-241 76 -478 30 -641 -123 -49 -47 -58 -51 -105 -52 -158 -4 -330 -42 -481
-106 -75 -32 -221 -124 -293 -185 -40 -34 -65 -49 -67 -41 -2 7 -13 51 -25 98
-42 163 -130 313 -267 452 -230 234 -568 363 -926 353 -71 -2 -128 -1 -128 3
0 11 -108 151 -170 222 -105 119 -297 266 -460 352 -185 98 -434 175 -655 203
-91 12 -369 12 -455 0z m3275 -3865 c19 -31 264 -169 329 -186 25 -6 26 -9 26
-78 l0 -72 -41 -3 c-22 -1 -48 4 -56 11 -23 19 -176 14 -233 -6 -81 -30 -98
-56 -175 -271 -50 -141 -86 -225 -96 -225 -20 0 -149 197 -153 234 0 7 27 43
61 79 82 87 161 195 216 295 45 80 97 200 97 221 0 14 17 14 25 1z m1321
-1267 c-10 -26 -26 -12 -22 20 6 45 6 45 17 18 5 -14 7 -31 5 -38z"/>
</g>
</svg>
